%TF.GenerationSoftware,KiCad,Pcbnew,8.0.5*%
%TF.CreationDate,2024-11-07T12:09:30+00:00*%
%TF.ProjectId,RLab Keyboard,524c6162-204b-4657-9962-6f6172642e6b,rev?*%
%TF.SameCoordinates,Original*%
%TF.FileFunction,Paste,Top*%
%TF.FilePolarity,Positive*%
%FSLAX46Y46*%
G04 Gerber Fmt 4.6, Leading zero omitted, Abs format (unit mm)*
G04 Created by KiCad (PCBNEW 8.0.5) date 2024-11-07 12:09:30*
%MOMM*%
%LPD*%
G01*
G04 APERTURE LIST*
G04 Aperture macros list*
%AMRoundRect*
0 Rectangle with rounded corners*
0 $1 Rounding radius*
0 $2 $3 $4 $5 $6 $7 $8 $9 X,Y pos of 4 corners*
0 Add a 4 corners polygon primitive as box body*
4,1,4,$2,$3,$4,$5,$6,$7,$8,$9,$2,$3,0*
0 Add four circle primitives for the rounded corners*
1,1,$1+$1,$2,$3*
1,1,$1+$1,$4,$5*
1,1,$1+$1,$6,$7*
1,1,$1+$1,$8,$9*
0 Add four rect primitives between the rounded corners*
20,1,$1+$1,$2,$3,$4,$5,0*
20,1,$1+$1,$4,$5,$6,$7,0*
20,1,$1+$1,$6,$7,$8,$9,0*
20,1,$1+$1,$8,$9,$2,$3,0*%
%AMFreePoly0*
4,1,14,0.354215,0.088284,0.450784,-0.008285,0.462500,-0.036569,0.462500,-0.060000,0.450784,-0.088284,0.422500,-0.100000,-0.422500,-0.100000,-0.450784,-0.088284,-0.462500,-0.060000,-0.462500,0.060000,-0.450784,0.088284,-0.422500,0.100000,0.325931,0.100000,0.354215,0.088284,0.354215,0.088284,$1*%
%AMFreePoly1*
4,1,14,0.450784,0.088284,0.462500,0.060000,0.462500,0.036569,0.450784,0.008285,0.354215,-0.088284,0.325931,-0.100000,-0.422500,-0.100000,-0.450784,-0.088284,-0.462500,-0.060000,-0.462500,0.060000,-0.450784,0.088284,-0.422500,0.100000,0.422500,0.100000,0.450784,0.088284,0.450784,0.088284,$1*%
%AMFreePoly2*
4,1,14,0.088284,0.450784,0.100000,0.422500,0.100000,-0.422500,0.088284,-0.450784,0.060000,-0.462500,-0.060000,-0.462500,-0.088284,-0.450784,-0.100000,-0.422500,-0.100000,0.325931,-0.088284,0.354215,0.008285,0.450784,0.036569,0.462500,0.060000,0.462500,0.088284,0.450784,0.088284,0.450784,$1*%
%AMFreePoly3*
4,1,14,-0.008285,0.450784,0.088284,0.354215,0.100000,0.325931,0.100000,-0.422500,0.088284,-0.450784,0.060000,-0.462500,-0.060000,-0.462500,-0.088284,-0.450784,-0.100000,-0.422500,-0.100000,0.422500,-0.088284,0.450784,-0.060000,0.462500,-0.036569,0.462500,-0.008285,0.450784,-0.008285,0.450784,$1*%
%AMFreePoly4*
4,1,14,0.450784,0.088284,0.462500,0.060000,0.462500,-0.060000,0.450784,-0.088284,0.422500,-0.100000,-0.325931,-0.100000,-0.354215,-0.088284,-0.450784,0.008285,-0.462500,0.036569,-0.462500,0.060000,-0.450784,0.088284,-0.422500,0.100000,0.422500,0.100000,0.450784,0.088284,0.450784,0.088284,$1*%
%AMFreePoly5*
4,1,14,0.450784,0.088284,0.462500,0.060000,0.462500,-0.060000,0.450784,-0.088284,0.422500,-0.100000,-0.422500,-0.100000,-0.450784,-0.088284,-0.462500,-0.060000,-0.462500,-0.036569,-0.450784,-0.008285,-0.354215,0.088284,-0.325931,0.100000,0.422500,0.100000,0.450784,0.088284,0.450784,0.088284,$1*%
%AMFreePoly6*
4,1,14,0.088284,0.450784,0.100000,0.422500,0.100000,-0.325931,0.088284,-0.354215,-0.008285,-0.450784,-0.036569,-0.462500,-0.060000,-0.462500,-0.088284,-0.450784,-0.100000,-0.422500,-0.100000,0.422500,-0.088284,0.450784,-0.060000,0.462500,0.060000,0.462500,0.088284,0.450784,0.088284,0.450784,$1*%
%AMFreePoly7*
4,1,14,0.088284,0.450784,0.100000,0.422500,0.100000,-0.422500,0.088284,-0.450784,0.060000,-0.462500,0.036569,-0.462500,0.008285,-0.450784,-0.088284,-0.354215,-0.100000,-0.325931,-0.100000,0.422500,-0.088284,0.450784,-0.060000,0.462500,0.060000,0.462500,0.088284,0.450784,0.088284,0.450784,$1*%
G04 Aperture macros list end*
%ADD10RoundRect,0.150000X-0.150000X0.512500X-0.150000X-0.512500X0.150000X-0.512500X0.150000X0.512500X0*%
%ADD11RoundRect,0.200000X0.275000X-0.200000X0.275000X0.200000X-0.275000X0.200000X-0.275000X-0.200000X0*%
%ADD12RoundRect,0.200000X-0.200000X-0.275000X0.200000X-0.275000X0.200000X0.275000X-0.200000X0.275000X0*%
%ADD13RoundRect,0.200000X0.200000X0.275000X-0.200000X0.275000X-0.200000X-0.275000X0.200000X-0.275000X0*%
%ADD14RoundRect,0.225000X-0.225000X-0.250000X0.225000X-0.250000X0.225000X0.250000X-0.225000X0.250000X0*%
%ADD15RoundRect,0.225000X0.225000X0.250000X-0.225000X0.250000X-0.225000X-0.250000X0.225000X-0.250000X0*%
%ADD16RoundRect,0.150000X-0.825000X-0.150000X0.825000X-0.150000X0.825000X0.150000X-0.825000X0.150000X0*%
%ADD17RoundRect,0.225000X-0.250000X0.225000X-0.250000X-0.225000X0.250000X-0.225000X0.250000X0.225000X0*%
%ADD18RoundRect,0.250000X-0.250000X-0.475000X0.250000X-0.475000X0.250000X0.475000X-0.250000X0.475000X0*%
%ADD19RoundRect,0.100000X0.637500X0.100000X-0.637500X0.100000X-0.637500X-0.100000X0.637500X-0.100000X0*%
%ADD20RoundRect,0.100000X0.225000X0.100000X-0.225000X0.100000X-0.225000X-0.100000X0.225000X-0.100000X0*%
%ADD21RoundRect,0.112500X0.187500X0.112500X-0.187500X0.112500X-0.187500X-0.112500X0.187500X-0.112500X0*%
%ADD22R,2.000000X1.500000*%
%ADD23RoundRect,0.225000X0.250000X-0.225000X0.250000X0.225000X-0.250000X0.225000X-0.250000X-0.225000X0*%
%ADD24RoundRect,0.112500X-0.187500X-0.112500X0.187500X-0.112500X0.187500X0.112500X-0.187500X0.112500X0*%
%ADD25RoundRect,0.250000X0.650000X-0.325000X0.650000X0.325000X-0.650000X0.325000X-0.650000X-0.325000X0*%
%ADD26FreePoly0,270.000000*%
%ADD27RoundRect,0.050000X-0.050000X0.412500X-0.050000X-0.412500X0.050000X-0.412500X0.050000X0.412500X0*%
%ADD28FreePoly1,270.000000*%
%ADD29FreePoly2,270.000000*%
%ADD30RoundRect,0.050000X-0.412500X0.050000X-0.412500X-0.050000X0.412500X-0.050000X0.412500X0.050000X0*%
%ADD31FreePoly3,270.000000*%
%ADD32FreePoly4,270.000000*%
%ADD33FreePoly5,270.000000*%
%ADD34FreePoly6,270.000000*%
%ADD35FreePoly7,270.000000*%
G04 APERTURE END LIST*
D10*
%TO.C,U1*%
X139810000Y-54195000D03*
X138860000Y-54195000D03*
X137910000Y-54195000D03*
X137910000Y-56470000D03*
X139810000Y-56470000D03*
%TD*%
D11*
%TO.C,R2*%
X144002500Y-107457500D03*
X144002500Y-105807500D03*
%TD*%
D12*
%TO.C,R14*%
X107005000Y-53420000D03*
X108655000Y-53420000D03*
%TD*%
D13*
%TO.C,R7*%
X142047500Y-111412500D03*
X140397500Y-111412500D03*
%TD*%
D12*
%TO.C,R12*%
X104505000Y-84870000D03*
X106155000Y-84870000D03*
%TD*%
%TO.C,R11*%
X104475000Y-82840000D03*
X106125000Y-82840000D03*
%TD*%
D14*
%TO.C,C10*%
X133915000Y-92690000D03*
X135465000Y-92690000D03*
%TD*%
D15*
%TO.C,C3*%
X141987500Y-109702500D03*
X140437500Y-109702500D03*
%TD*%
D16*
%TO.C,U5*%
X102687499Y-87262500D03*
X102687499Y-88532500D03*
X102687499Y-89802500D03*
X102687499Y-91072500D03*
X107637499Y-91072500D03*
X107637499Y-89802500D03*
X107637499Y-88532500D03*
X107637499Y-87262500D03*
%TD*%
D17*
%TO.C,C26*%
X115010000Y-93965000D03*
X115010000Y-95515000D03*
%TD*%
D14*
%TO.C,C14*%
X123565000Y-61240000D03*
X125115000Y-61240000D03*
%TD*%
D11*
%TO.C,R1*%
X142212500Y-107437500D03*
X142212500Y-105787500D03*
%TD*%
D13*
%TO.C,R9*%
X135525000Y-94820000D03*
X133875000Y-94820000D03*
%TD*%
%TO.C,R15*%
X104945000Y-92980000D03*
X103295000Y-92980000D03*
%TD*%
D14*
%TO.C,C21*%
X106585000Y-92960000D03*
X108135000Y-92960000D03*
%TD*%
D18*
%TO.C,C11*%
X133700000Y-97020000D03*
X135600000Y-97020000D03*
%TD*%
D15*
%TO.C,C6*%
X180925000Y-56850000D03*
X179375000Y-56850000D03*
%TD*%
%TO.C,C15*%
X122355000Y-95320000D03*
X120805000Y-95320000D03*
%TD*%
D14*
%TO.C,C24*%
X107065000Y-51780000D03*
X108615000Y-51780000D03*
%TD*%
%TO.C,C22*%
X123555000Y-59500000D03*
X125105000Y-59500000D03*
%TD*%
D19*
%TO.C,U4*%
X133280000Y-61210000D03*
X133280000Y-60560000D03*
X133280000Y-59910000D03*
X133280000Y-59260000D03*
X133280000Y-58610000D03*
X133280000Y-57960000D03*
X133280000Y-57310000D03*
X133280000Y-56660000D03*
X133280000Y-56010000D03*
X133280000Y-55360000D03*
X127555000Y-55360000D03*
X127555000Y-56010000D03*
X127555000Y-56660000D03*
X127555000Y-57310000D03*
X127555000Y-57960000D03*
X127555000Y-58610000D03*
X127555000Y-59260000D03*
X127555000Y-59910000D03*
X127555000Y-60560000D03*
X127555000Y-61210000D03*
%TD*%
D11*
%TO.C,R4*%
X140452500Y-107457500D03*
X140452500Y-105807500D03*
%TD*%
D12*
%TO.C,R13*%
X110520000Y-65640000D03*
X112170000Y-65640000D03*
%TD*%
D14*
%TO.C,C1*%
X120825000Y-97430000D03*
X122375000Y-97430000D03*
%TD*%
D20*
%TO.C,U3*%
X139490000Y-94590000D03*
X139490000Y-93940000D03*
X139490000Y-93290000D03*
X137590000Y-93290000D03*
X137590000Y-94590000D03*
%TD*%
D21*
%TO.C,D2*%
X177512500Y-60130000D03*
X175412500Y-60130000D03*
%TD*%
D22*
%TO.C,J17*%
X112500000Y-52300000D03*
X119500000Y-52300000D03*
X112500000Y-55700000D03*
X119500000Y-59500000D03*
X112500000Y-61200000D03*
X119500000Y-61700000D03*
%TD*%
D23*
%TO.C,C4*%
X147547500Y-107427500D03*
X147547500Y-105877500D03*
%TD*%
D12*
%TO.C,R5*%
X184505000Y-111390000D03*
X186155000Y-111390000D03*
%TD*%
D14*
%TO.C,C13*%
X110610000Y-64010000D03*
X112160000Y-64010000D03*
%TD*%
%TO.C,C2*%
X137985000Y-52060000D03*
X139535000Y-52060000D03*
%TD*%
D23*
%TO.C,C27*%
X113400000Y-95510000D03*
X113400000Y-93960000D03*
%TD*%
D21*
%TO.C,D1*%
X177532500Y-57680000D03*
X175432500Y-57680000D03*
%TD*%
D17*
%TO.C,C5*%
X140000000Y-58405000D03*
X140000000Y-59955000D03*
%TD*%
D24*
%TO.C,D3*%
X124602500Y-95320000D03*
X126702500Y-95320000D03*
%TD*%
D12*
%TO.C,R6*%
X184555000Y-108220000D03*
X186205000Y-108220000D03*
%TD*%
%TO.C,R10*%
X123525000Y-57720000D03*
X125175000Y-57720000D03*
%TD*%
D25*
%TO.C,C23*%
X111260000Y-91825000D03*
X111260000Y-88875000D03*
%TD*%
D17*
%TO.C,C20*%
X135840000Y-59195000D03*
X135840000Y-60745000D03*
%TD*%
D26*
%TO.C,U2*%
X147100000Y-109770000D03*
D27*
X146700000Y-109770000D03*
X146300000Y-109770000D03*
X145900000Y-109770000D03*
D28*
X145500000Y-109770000D03*
D29*
X144912500Y-110357500D03*
D30*
X144912500Y-110757500D03*
X144912500Y-111157500D03*
X144912500Y-111557500D03*
D31*
X144912500Y-111957500D03*
D32*
X145500000Y-112545000D03*
D27*
X145900000Y-112545000D03*
X146300000Y-112545000D03*
X146700000Y-112545000D03*
D33*
X147100000Y-112545000D03*
D34*
X147687500Y-111957500D03*
D30*
X147687500Y-111557500D03*
X147687500Y-111157500D03*
X147687500Y-110757500D03*
D35*
X147687500Y-110357500D03*
%TD*%
D15*
%TO.C,C7*%
X180875000Y-58860000D03*
X179325000Y-58860000D03*
%TD*%
%TO.C,C8*%
X180875000Y-60790000D03*
X179325000Y-60790000D03*
%TD*%
D17*
%TO.C,C18*%
X136040000Y-52315000D03*
X136040000Y-53865000D03*
%TD*%
D14*
%TO.C,C25*%
X110545000Y-67310000D03*
X112095000Y-67310000D03*
%TD*%
%TO.C,C16*%
X107055000Y-55040000D03*
X108605000Y-55040000D03*
%TD*%
D15*
%TO.C,C17*%
X132335000Y-62880000D03*
X130785000Y-62880000D03*
%TD*%
D12*
%TO.C,R8*%
X137735000Y-90790000D03*
X139385000Y-90790000D03*
%TD*%
D11*
%TO.C,R3*%
X145802500Y-107452500D03*
X145802500Y-105802500D03*
%TD*%
D23*
%TO.C,C19*%
X136040000Y-57035000D03*
X136040000Y-55485000D03*
%TD*%
D15*
%TO.C,C9*%
X139250000Y-97310000D03*
X137700000Y-97310000D03*
%TD*%
%TO.C,C12*%
X135895000Y-62730000D03*
X134345000Y-62730000D03*
%TD*%
M02*
