%TF.GenerationSoftware,KiCad,Pcbnew,8.0.5*%
%TF.CreationDate,2024-11-07T12:09:30+00:00*%
%TF.ProjectId,RLab Keyboard,524c6162-204b-4657-9962-6f6172642e6b,rev?*%
%TF.SameCoordinates,Original*%
%TF.FileFunction,Legend,Bot*%
%TF.FilePolarity,Positive*%
%FSLAX46Y46*%
G04 Gerber Fmt 4.6, Leading zero omitted, Abs format (unit mm)*
G04 Created by KiCad (PCBNEW 8.0.5) date 2024-11-07 12:09:30*
%MOMM*%
%LPD*%
G01*
G04 APERTURE LIST*
G04 Aperture macros list*
%AMRoundRect*
0 Rectangle with rounded corners*
0 $1 Rounding radius*
0 $2 $3 $4 $5 $6 $7 $8 $9 X,Y pos of 4 corners*
0 Add a 4 corners polygon primitive as box body*
4,1,4,$2,$3,$4,$5,$6,$7,$8,$9,$2,$3,0*
0 Add four circle primitives for the rounded corners*
1,1,$1+$1,$2,$3*
1,1,$1+$1,$4,$5*
1,1,$1+$1,$6,$7*
1,1,$1+$1,$8,$9*
0 Add four rect primitives between the rounded corners*
20,1,$1+$1,$2,$3,$4,$5,0*
20,1,$1+$1,$4,$5,$6,$7,0*
20,1,$1+$1,$6,$7,$8,$9,0*
20,1,$1+$1,$8,$9,$2,$3,0*%
G04 Aperture macros list end*
%ADD10C,2.000000*%
%ADD11R,1.700000X1.700000*%
%ADD12O,1.700000X1.700000*%
%ADD13R,1.800000X1.800000*%
%ADD14C,1.800000*%
%ADD15RoundRect,0.750000X-0.750000X1.250000X-0.750000X-1.250000X0.750000X-1.250000X0.750000X1.250000X0*%
%ADD16C,1.500000*%
%ADD17R,1.600000X1.600000*%
%ADD18C,1.600000*%
%ADD19O,1.800000X1.800000*%
%ADD20O,1.500000X1.500000*%
%ADD21C,3.500000*%
G04 APERTURE END LIST*
%LPC*%
D10*
%TO.C,SW6*%
X174500000Y-107500000D03*
X181000000Y-107500000D03*
X174500000Y-112000000D03*
X181000000Y-112000000D03*
%TD*%
D11*
%TO.C,J20*%
X108000000Y-110000000D03*
D12*
X108000000Y-107460000D03*
X108000000Y-104920000D03*
X108000000Y-102380000D03*
X108000000Y-99840000D03*
X108000000Y-97300000D03*
%TD*%
D13*
%TO.C,RV2*%
X135000000Y-100000000D03*
D14*
X132500000Y-100000000D03*
X130000000Y-100000000D03*
D15*
X136900000Y-107000000D03*
X128100000Y-107000000D03*
%TD*%
D10*
%TO.C,SW1*%
X156000000Y-105000000D03*
X156000000Y-111500000D03*
X151500000Y-105000000D03*
X151500000Y-111500000D03*
%TD*%
%TO.C,SW5*%
X174500000Y-92500000D03*
X181000000Y-92500000D03*
X174500000Y-97000000D03*
X181000000Y-97000000D03*
%TD*%
%TO.C,SW2*%
X165500000Y-105000000D03*
X165500000Y-111500000D03*
X161000000Y-105000000D03*
X161000000Y-111500000D03*
%TD*%
D16*
%TO.C,J17*%
X116000000Y-52700000D03*
X116000000Y-59700000D03*
%TD*%
D13*
%TO.C,RV1*%
X120000000Y-100000000D03*
D14*
X117500000Y-100000000D03*
X115000000Y-100000000D03*
D15*
X121900000Y-107000000D03*
X113100000Y-107000000D03*
%TD*%
D10*
%TO.C,SW3*%
X175000000Y-104500000D03*
X168500000Y-104500000D03*
X175000000Y-100000000D03*
X168500000Y-100000000D03*
%TD*%
D11*
%TO.C,J15*%
X108000000Y-80000000D03*
D12*
X108000000Y-77460000D03*
X108000000Y-74920000D03*
X108000000Y-72380000D03*
X108000000Y-69840000D03*
X108000000Y-67300000D03*
X108000000Y-64760000D03*
X108000000Y-62220000D03*
X108000000Y-59680000D03*
%TD*%
D11*
%TO.C,J16*%
X189750000Y-80000000D03*
D12*
X189750000Y-77460000D03*
X189750000Y-74920000D03*
X189750000Y-72380000D03*
X189750000Y-69840000D03*
X189750000Y-67300000D03*
X189750000Y-64760000D03*
X189750000Y-62220000D03*
X189750000Y-59680000D03*
%TD*%
D17*
%TO.C,LS1*%
X117560000Y-78410000D03*
D18*
X132560000Y-78410000D03*
%TD*%
D19*
%TO.C,A1*%
X152275000Y-51500000D03*
D20*
X152575000Y-54530000D03*
X157425000Y-54530000D03*
D19*
X157725000Y-51500000D03*
D12*
X146110000Y-51370000D03*
X146110000Y-53910000D03*
D11*
X146110000Y-56450000D03*
D12*
X146110000Y-58990000D03*
X146110000Y-61530000D03*
X146110000Y-64070000D03*
X146110000Y-66610000D03*
D11*
X146110000Y-69150000D03*
D12*
X146110000Y-71690000D03*
X146110000Y-74230000D03*
X146110000Y-76770000D03*
X146110000Y-79310000D03*
D11*
X146110000Y-81850000D03*
D12*
X146110000Y-84390000D03*
X146110000Y-86930000D03*
X146110000Y-89470000D03*
X146110000Y-92010000D03*
D11*
X146110000Y-94550000D03*
D12*
X146110000Y-97090000D03*
X146110000Y-99630000D03*
X163890000Y-99630000D03*
X163890000Y-97090000D03*
D11*
X163890000Y-94550000D03*
D12*
X163890000Y-92010000D03*
X163890000Y-89470000D03*
X163890000Y-86930000D03*
X163890000Y-84390000D03*
D11*
X163890000Y-81850000D03*
D12*
X163890000Y-79310000D03*
X163890000Y-76770000D03*
X163890000Y-74230000D03*
X163890000Y-71690000D03*
D11*
X163890000Y-69150000D03*
D12*
X163890000Y-66610000D03*
X163890000Y-64070000D03*
X163890000Y-61530000D03*
X163890000Y-58990000D03*
D11*
X163890000Y-56450000D03*
D12*
X163890000Y-53910000D03*
X163890000Y-51370000D03*
X152460000Y-99400000D03*
D11*
X155000000Y-99400000D03*
D12*
X157540000Y-99400000D03*
%TD*%
D21*
%TO.C,J13*%
X173110000Y-53390000D03*
X173110000Y-87610000D03*
D11*
X176880000Y-52390000D03*
D21*
X195890000Y-53390000D03*
X195890000Y-87610000D03*
D12*
X179420000Y-52390000D03*
X181960000Y-52390000D03*
X184500000Y-52390000D03*
X187040000Y-52390000D03*
X189580000Y-52390000D03*
X192120000Y-52390000D03*
%TD*%
D11*
%TO.C,J14*%
X104250000Y-80000000D03*
D12*
X104250000Y-77460000D03*
X104250000Y-74920000D03*
X104250000Y-72380000D03*
X104250000Y-69840000D03*
X104250000Y-67300000D03*
X104250000Y-64760000D03*
X104250000Y-62220000D03*
X104250000Y-59680000D03*
%TD*%
D11*
%TO.C,J18*%
X189750000Y-110000000D03*
D12*
X189750000Y-107460000D03*
X189750000Y-104920000D03*
X189750000Y-102380000D03*
X189750000Y-99840000D03*
X189750000Y-97300000D03*
%TD*%
D10*
%TO.C,SW4*%
X186500000Y-104500000D03*
X180000000Y-104500000D03*
X186500000Y-100000000D03*
X180000000Y-100000000D03*
%TD*%
D11*
%TO.C,J19*%
X104250000Y-110000000D03*
D12*
X104250000Y-107460000D03*
X104250000Y-104920000D03*
X104250000Y-102380000D03*
X104250000Y-99840000D03*
X104250000Y-97300000D03*
%TD*%
%LPD*%
M02*
