M48
; DRILL file {KiCad 8.0.5} date 2024-11-07T12:09:30+0000
; FORMAT={-:-/ absolute / inch / decimal}
; #@! TF.CreationDate,2024-11-07T12:09:30+00:00
; #@! TF.GenerationSoftware,Kicad,Pcbnew,8.0.5
; #@! TF.FileFunction,Plated,1,2,PTH
FMAT,2
INCH
; #@! TA.AperFunction,Plated,PTH,ViaDrill
T1C0.0118
; #@! TA.AperFunction,Plated,PTH,ComponentDrill
T2C0.0394
; #@! TA.AperFunction,Plated,PTH,ComponentDrill
T3C0.0402
; #@! TA.AperFunction,Plated,PTH,ComponentDrill
T4C0.0433
; #@! TA.AperFunction,Plated,PTH,ComponentDrill
T5C0.0709
; #@! TA.AperFunction,Plated,PTH,ComponentDrill
T6C0.0787
%
G90
G05
T1
X4.0091Y-2.9504
X4.3256Y-2.9287
X4.3301Y-2.1317
X4.3339Y-3.9791
X4.3425Y-2.1965
X4.3594Y-2.7441
X4.3642Y-3.8693
X4.3933Y-2.3488
X4.5067Y-2.3843
X4.5923Y-3.6994
X4.6138Y-3.8122
X4.6201Y-4.2319
X4.6394Y-3.5866
X4.6457Y-2.2087
X4.6807Y-3.5748
X4.8114Y-3.6256
X4.8602Y-3.7933
X4.952Y-3.765
X4.9887Y-2.4739
X4.9887Y-2.7964
X4.9906Y-3.6354
X5.0343Y-3.8602
X5.0705Y-2.3035
X5.0709Y-2.3593
X5.0736Y-2.2354
X5.0898Y-2.2783
X5.1063Y-2.3752
X5.1508Y-3.6961
X5.1673Y-2.26
X5.2008Y-2.2589
X5.2157Y-4.2276
X5.3083Y-2.1732
X5.3094Y-3.0772
X5.3815Y-3.8697
X5.463Y-3.3252
X5.4646Y-3.1984
X5.4677Y-4.1031
X5.5094Y-3.9602
X5.5327Y-2.2122
X5.5445Y-2.0736
X5.553Y-3.0576
X5.5583Y-2.2876
X5.5693Y-3.3142
X5.5911Y-2.3014
X5.5961Y-3.6642
X5.5988Y-3.4965
X5.6169Y-2.6657
X5.6169Y-3.1638
X5.6244Y-3.0208
X5.6303Y-2.2299
X5.6571Y-4.0713
X5.6677Y-4.3398
X5.7947Y-4.0404
X5.8134Y-2.7224
X5.8256Y-2.2209
X5.8421Y-4.2614
X5.8429Y-2.4801
X5.8461Y-4.2102
X5.86Y-3.1224
X5.8728Y-4.128
X5.8786Y-2.2746
X5.8927Y-4.1588
X5.9407Y-3.3224
X5.9557Y-3.4224
X5.9622Y-2.7114
X5.9685Y-3.5399
X5.9693Y-2.5683
X5.9723Y-3.4926
X5.9764Y-2.865
X5.9969Y-2.9535
X6.0004Y-4.2594
X6.0055Y-2.6449
X6.0201Y-3.472
X6.0276Y-3.3642
X6.0642Y-3.7378
X6.0854Y-3.5102
X6.1181Y-2.8154
X6.1413Y-3.4791
X6.1689Y-2.239
X6.2138Y-3.1866
X6.3295Y-3.3626
X6.3413Y-2.8252
X6.3575Y-2.9157
X6.3807Y-2.1843
X6.5819Y-2.7752
X6.6256Y-2.2563
X6.6378Y-2.452
X6.6568Y-2.6574
X6.6815Y-4.2358
X6.7063Y-3.7283
X6.7283Y-3.1087
X6.7791Y-2.4291
X6.8287Y-2.678
X6.8311Y-2.2709
X6.8764Y-2.3402
X6.9283Y-3.7736
X6.9929Y-4.0185
X6.9976Y-4.276
X7.0325Y-2.163
X7.0728Y-2.4504
X7.2181Y-4.2646
X7.2181Y-4.3992
X7.2992Y-3.4016
X7.3228Y-2.402
X7.3622Y-2.2268
X7.3669Y-2.95
X7.6929Y-3.9354
X7.6945Y-2.5528
T2
X4.1043Y-2.3496
X4.1043Y-2.4496
X4.1043Y-2.5496
X4.1043Y-2.6496
X4.1043Y-2.7496
X4.1043Y-2.8496
X4.1043Y-2.9496
X4.1043Y-3.0496
X4.1043Y-3.1496
X4.1043Y-3.8307
X4.1043Y-3.9307
X4.1043Y-4.0307
X4.1043Y-4.1307
X4.1043Y-4.2307
X4.1043Y-4.3307
X4.252Y-2.3496
X4.252Y-2.4496
X4.252Y-2.5496
X4.252Y-2.6496
X4.252Y-2.7496
X4.252Y-2.8496
X4.252Y-2.9496
X4.252Y-3.0496
X4.252Y-3.1496
X4.252Y-3.8307
X4.252Y-3.9307
X4.252Y-4.0307
X4.252Y-4.1307
X4.252Y-4.2307
X4.252Y-4.3307
X4.5276Y-3.937
X4.626Y-3.937
X4.6283Y-3.087
X4.7244Y-3.937
X5.1181Y-3.937
X5.2165Y-3.937
X5.2189Y-3.087
X5.315Y-3.937
X6.9638Y-2.0626
X7.0638Y-2.0626
X7.1638Y-2.0626
X7.2638Y-2.0626
X7.3638Y-2.0626
X7.4638Y-2.0626
X7.4705Y-2.3496
X7.4705Y-2.4496
X7.4705Y-2.5496
X7.4705Y-2.6496
X7.4705Y-2.7496
X7.4705Y-2.8496
X7.4705Y-2.9496
X7.4705Y-3.0496
X7.4705Y-3.1496
X7.4705Y-3.8307
X7.4705Y-3.9307
X7.4705Y-4.0307
X7.4705Y-4.1307
X7.4705Y-4.2307
X7.4705Y-4.3307
X7.5638Y-2.0626
T3
X5.7524Y-2.0224
X5.7524Y-2.1224
X5.7524Y-2.2224
X5.7524Y-2.3224
X5.7524Y-2.4224
X5.7524Y-2.5224
X5.7524Y-2.6224
X5.7524Y-2.7224
X5.7524Y-2.8224
X5.7524Y-2.9224
X5.7524Y-3.0224
X5.7524Y-3.1224
X5.7524Y-3.2224
X5.7524Y-3.3224
X5.7524Y-3.4224
X5.7524Y-3.5224
X5.7524Y-3.6224
X5.7524Y-3.7224
X5.7524Y-3.8224
X5.7524Y-3.9224
X6.0024Y-3.9134
X6.1024Y-3.9134
X6.2024Y-3.9134
X6.4524Y-2.0224
X6.4524Y-2.1224
X6.4524Y-2.2224
X6.4524Y-2.3224
X6.4524Y-2.4224
X6.4524Y-2.5224
X6.4524Y-2.6224
X6.4524Y-2.7224
X6.4524Y-2.8224
X6.4524Y-2.9224
X6.4524Y-3.0224
X6.4524Y-3.1224
X6.4524Y-3.2224
X6.4524Y-3.3224
X6.4524Y-3.4224
X6.4524Y-3.5224
X6.4524Y-3.6224
X6.4524Y-3.7224
X6.4524Y-3.8224
X6.4524Y-3.9224
T4
X5.9646Y-4.1339
X5.9646Y-4.3898
X6.1417Y-4.1339
X6.1417Y-4.3898
X6.3386Y-4.1339
X6.3386Y-4.3898
X6.5157Y-4.1339
X6.5157Y-4.3898
X6.6339Y-3.937
X6.6339Y-4.1142
X6.8701Y-3.6417
X6.8701Y-3.8189
X6.8701Y-4.2323
X6.8701Y-4.4094
X6.8898Y-3.937
X6.8898Y-4.1142
X7.0866Y-3.937
X7.0866Y-4.1142
X7.126Y-3.6417
X7.126Y-3.8189
X7.126Y-4.2323
X7.126Y-4.4094
X7.3425Y-3.937
X7.3425Y-4.1142
T6
X6.8154Y-2.102
X6.8154Y-3.4492
X7.7122Y-2.102
X7.7122Y-3.4492
T5
G00X4.4528Y-4.2067
M15
G01X4.4528Y-4.2185
M16
G05
G00X4.7992Y-4.2067
M15
G01X4.7992Y-4.2185
M16
G05
G00X5.0433Y-4.2067
M15
G01X5.0433Y-4.2185
M16
G05
G00X5.3898Y-4.2067
M15
G01X5.3898Y-4.2185
M16
G05
M30
