M48
; DRILL file {KiCad 8.0.4} date 2024-09-11T13:19:40+0100
; FORMAT={-:-/ absolute / inch / decimal}
; #@! TF.CreationDate,2024-09-11T13:19:40+01:00
; #@! TF.GenerationSoftware,Kicad,Pcbnew,8.0.4
; #@! TF.FileFunction,Plated,1,2,PTH
FMAT,2
INCH
; #@! TA.AperFunction,Plated,PTH,ViaDrill
T1C0.0118
; #@! TA.AperFunction,Plated,PTH,ComponentDrill
T2C0.0394
; #@! TA.AperFunction,Plated,PTH,ComponentDrill
T3C0.0402
; #@! TA.AperFunction,Plated,PTH,ComponentDrill
T4C0.0433
; #@! TA.AperFunction,Plated,PTH,ComponentDrill
T5C0.0709
; #@! TA.AperFunction,Plated,PTH,ComponentDrill
T6C0.0787
%
G90
G05
T1
X4.9921Y-4.1449
X5.3819Y-2.702
X5.5768Y-4.0937
X5.6409Y-3.7437
X5.6503Y-4.3443
X5.6744Y-2.8496
X5.6791Y-2.0311
X5.6965Y-3.4984
X5.7067Y-3.1697
X5.7457Y-3.8461
X5.758Y-3.6553
X5.7594Y-3.7024
X5.7717Y-3.6224
X5.7854Y-3.587
X5.8807Y-4.2492
X5.8835Y-3.1969
X5.8854Y-2.9394
X5.911Y-3.5992
X5.9541Y-4.2498
X5.9869Y-4.3569
X6.0012Y-2.9543
X6.0161Y-2.8492
X6.0161Y-4.1307
X6.0181Y-4.1638
X6.0732Y-4.202
X6.0823Y-2.9992
X6.113Y-2.9996
X6.1268Y-2.7
X6.1406Y-2.0303
X6.1469Y-3.9354
X6.152Y-3.6913
X6.152Y-4.0909
X6.1689Y-3.2429
X6.2268Y-4.1709
X6.4043Y-3.1028
X6.4079Y-3.6906
X6.4142Y-3.2874
X6.5185Y-3.0035
X6.5756Y-3.802
X6.5764Y-3.7
X6.5957Y-3.4476
X6.623Y-3.0636
X6.663Y-3.7705
X6.7004Y-4.3756
X6.7035Y-4.2634
X6.7469Y-3.9594
X6.7687Y-3.0156
X6.8008Y-2.776
X6.8075Y-2.9917
X6.878Y-3.7591
X6.8797Y-2.7817
X6.8823Y-3.0166
X7.0754Y-2.3677
X7.1717Y-4.2437
X7.7717Y-2.1839
X7.824Y-2.7358
X7.8252Y-2.9063
T2
X4.0949Y-4.0134
X4.0949Y-4.1118
X4.0949Y-4.2102
X4.2941Y-2.1799
X4.3941Y-2.1799
X4.4941Y-2.1799
X4.5941Y-2.1799
X4.6941Y-2.1799
X4.7886Y-4.0134
X4.7886Y-4.1118
X4.7886Y-4.2102
X4.7941Y-2.1799
X4.8941Y-2.1799
X6.185Y-4.3705
X6.285Y-4.3705
X6.385Y-4.3705
X6.485Y-4.3705
X6.6059Y-2.5669
X6.6077Y-2.34
X6.6083Y-2.1244
X6.7059Y-2.5669
X6.7077Y-2.34
X6.7083Y-2.1244
X6.8059Y-2.5669
X6.8077Y-2.34
X6.8083Y-2.1244
X6.9559Y-3.5079
X6.9807Y-2.1004
X7.0807Y-2.1004
X7.1807Y-2.1004
X7.2807Y-2.1004
X7.3807Y-2.1004
X7.4807Y-2.1004
X7.5465Y-3.5079
X7.5807Y-2.1004
X7.6807Y-2.1004
X7.7807Y-2.1004
T3
X5.5555Y-2.0421
X5.5555Y-2.1421
X5.5555Y-2.2421
X5.5555Y-2.3421
X5.5555Y-2.4421
X5.5555Y-2.5421
X5.5555Y-2.6421
X5.5555Y-2.7421
X5.5555Y-2.8421
X5.5555Y-2.9421
X5.5555Y-3.0421
X5.5555Y-3.1421
X5.5555Y-3.2421
X5.5555Y-3.3421
X5.5555Y-3.4421
X5.5555Y-3.5421
X5.5555Y-3.6421
X5.5555Y-3.7421
X5.5555Y-3.8421
X5.5555Y-3.9421
X5.8055Y-3.9331
X5.9055Y-3.9331
X6.0055Y-3.9331
X6.2555Y-2.0421
X6.2555Y-2.1421
X6.2555Y-2.2421
X6.2555Y-2.3421
X6.2555Y-2.4421
X6.2555Y-2.5421
X6.2555Y-2.6421
X6.2555Y-2.7421
X6.2555Y-2.8421
X6.2555Y-2.9421
X6.2555Y-3.0421
X6.2555Y-3.1421
X6.2555Y-3.2421
X6.2555Y-3.3421
X6.2555Y-3.4421
X6.2555Y-3.5421
X6.2555Y-3.6421
X6.2555Y-3.7421
X6.2555Y-3.8421
X6.2555Y-3.9421
T4
X6.8335Y-4.263
X6.8335Y-4.4402
X7.0894Y-4.263
X7.0894Y-4.4402
X7.4965Y-4.263
X7.4965Y-4.4402
X7.7524Y-4.263
X7.7524Y-4.4402
T6
X4.1457Y-2.2193
X4.1457Y-3.5665
X5.0425Y-2.2193
X5.0425Y-3.5665
T5
G00X4.3646Y-3.9386
M15
G01X4.3764Y-3.9386
M16
G05
G00X4.3646Y-4.285
M15
G01X4.3764Y-4.285
M16
G05
G00X5.0583Y-3.9386
M15
G01X5.0701Y-3.9386
M16
G05
G00X5.0583Y-4.285
M15
G01X5.0701Y-4.285
M16
G05
M30
