%TF.GenerationSoftware,KiCad,Pcbnew,8.0.4*%
%TF.CreationDate,2024-09-11T16:00:37+01:00*%
%TF.ProjectId,RLab Keyboard,524c6162-204b-4657-9962-6f6172642e6b,rev?*%
%TF.SameCoordinates,Original*%
%TF.FileFunction,Soldermask,Top*%
%TF.FilePolarity,Negative*%
%FSLAX46Y46*%
G04 Gerber Fmt 4.6, Leading zero omitted, Abs format (unit mm)*
G04 Created by KiCad (PCBNEW 8.0.4) date 2024-09-11 16:00:37*
%MOMM*%
%LPD*%
G01*
G04 APERTURE LIST*
G04 Aperture macros list*
%AMRoundRect*
0 Rectangle with rounded corners*
0 $1 Rounding radius*
0 $2 $3 $4 $5 $6 $7 $8 $9 X,Y pos of 4 corners*
0 Add a 4 corners polygon primitive as box body*
4,1,4,$2,$3,$4,$5,$6,$7,$8,$9,$2,$3,0*
0 Add four circle primitives for the rounded corners*
1,1,$1+$1,$2,$3*
1,1,$1+$1,$4,$5*
1,1,$1+$1,$6,$7*
1,1,$1+$1,$8,$9*
0 Add four rect primitives between the rounded corners*
20,1,$1+$1,$2,$3,$4,$5,0*
20,1,$1+$1,$4,$5,$6,$7,0*
20,1,$1+$1,$6,$7,$8,$9,0*
20,1,$1+$1,$8,$9,$2,$3,0*%
%AMFreePoly0*
4,1,14,0.354215,0.088284,0.450784,-0.008285,0.462500,-0.036569,0.462500,-0.060000,0.450784,-0.088284,0.422500,-0.100000,-0.422500,-0.100000,-0.450784,-0.088284,-0.462500,-0.060000,-0.462500,0.060000,-0.450784,0.088284,-0.422500,0.100000,0.325931,0.100000,0.354215,0.088284,0.354215,0.088284,$1*%
%AMFreePoly1*
4,1,14,0.450784,0.088284,0.462500,0.060000,0.462500,0.036569,0.450784,0.008285,0.354215,-0.088284,0.325931,-0.100000,-0.422500,-0.100000,-0.450784,-0.088284,-0.462500,-0.060000,-0.462500,0.060000,-0.450784,0.088284,-0.422500,0.100000,0.422500,0.100000,0.450784,0.088284,0.450784,0.088284,$1*%
%AMFreePoly2*
4,1,14,0.088284,0.450784,0.100000,0.422500,0.100000,-0.422500,0.088284,-0.450784,0.060000,-0.462500,-0.060000,-0.462500,-0.088284,-0.450784,-0.100000,-0.422500,-0.100000,0.325931,-0.088284,0.354215,0.008285,0.450784,0.036569,0.462500,0.060000,0.462500,0.088284,0.450784,0.088284,0.450784,$1*%
%AMFreePoly3*
4,1,14,-0.008285,0.450784,0.088284,0.354215,0.100000,0.325931,0.100000,-0.422500,0.088284,-0.450784,0.060000,-0.462500,-0.060000,-0.462500,-0.088284,-0.450784,-0.100000,-0.422500,-0.100000,0.422500,-0.088284,0.450784,-0.060000,0.462500,-0.036569,0.462500,-0.008285,0.450784,-0.008285,0.450784,$1*%
%AMFreePoly4*
4,1,14,0.450784,0.088284,0.462500,0.060000,0.462500,-0.060000,0.450784,-0.088284,0.422500,-0.100000,-0.325931,-0.100000,-0.354215,-0.088284,-0.450784,0.008285,-0.462500,0.036569,-0.462500,0.060000,-0.450784,0.088284,-0.422500,0.100000,0.422500,0.100000,0.450784,0.088284,0.450784,0.088284,$1*%
%AMFreePoly5*
4,1,14,0.450784,0.088284,0.462500,0.060000,0.462500,-0.060000,0.450784,-0.088284,0.422500,-0.100000,-0.422500,-0.100000,-0.450784,-0.088284,-0.462500,-0.060000,-0.462500,-0.036569,-0.450784,-0.008285,-0.354215,0.088284,-0.325931,0.100000,0.422500,0.100000,0.450784,0.088284,0.450784,0.088284,$1*%
%AMFreePoly6*
4,1,14,0.088284,0.450784,0.100000,0.422500,0.100000,-0.325931,0.088284,-0.354215,-0.008285,-0.450784,-0.036569,-0.462500,-0.060000,-0.462500,-0.088284,-0.450784,-0.100000,-0.422500,-0.100000,0.422500,-0.088284,0.450784,-0.060000,0.462500,0.060000,0.462500,0.088284,0.450784,0.088284,0.450784,$1*%
%AMFreePoly7*
4,1,14,0.088284,0.450784,0.100000,0.422500,0.100000,-0.422500,0.088284,-0.450784,0.060000,-0.462500,0.036569,-0.462500,0.008285,-0.450784,-0.088284,-0.354215,-0.100000,-0.325931,-0.100000,0.422500,-0.088284,0.450784,-0.060000,0.462500,0.060000,0.462500,0.088284,0.450784,0.088284,0.450784,$1*%
G04 Aperture macros list end*
%ADD10RoundRect,0.200000X0.275000X-0.200000X0.275000X0.200000X-0.275000X0.200000X-0.275000X-0.200000X0*%
%ADD11RoundRect,0.150000X-0.150000X0.512500X-0.150000X-0.512500X0.150000X-0.512500X0.150000X0.512500X0*%
%ADD12RoundRect,0.200000X-0.200000X-0.275000X0.200000X-0.275000X0.200000X0.275000X-0.200000X0.275000X0*%
%ADD13RoundRect,0.200000X0.200000X0.275000X-0.200000X0.275000X-0.200000X-0.275000X0.200000X-0.275000X0*%
%ADD14R,1.700000X1.700000*%
%ADD15O,1.700000X1.700000*%
%ADD16RoundRect,0.225000X0.250000X-0.225000X0.250000X0.225000X-0.250000X0.225000X-0.250000X-0.225000X0*%
%ADD17RoundRect,0.225000X0.225000X0.250000X-0.225000X0.250000X-0.225000X-0.250000X0.225000X-0.250000X0*%
%ADD18RoundRect,0.150000X-0.825000X-0.150000X0.825000X-0.150000X0.825000X0.150000X-0.825000X0.150000X0*%
%ADD19RoundRect,0.225000X-0.250000X0.225000X-0.250000X-0.225000X0.250000X-0.225000X0.250000X0.225000X0*%
%ADD20RoundRect,0.225000X-0.225000X-0.250000X0.225000X-0.250000X0.225000X0.250000X-0.225000X0.250000X0*%
%ADD21C,2.000000*%
%ADD22R,1.800000X1.800000*%
%ADD23C,1.800000*%
%ADD24RoundRect,0.750000X-1.250000X-0.750000X1.250000X-0.750000X1.250000X0.750000X-1.250000X0.750000X0*%
%ADD25RoundRect,0.200000X-0.275000X0.200000X-0.275000X-0.200000X0.275000X-0.200000X0.275000X0.200000X0*%
%ADD26R,1.300000X1.300000*%
%ADD27R,1.300000X2.000000*%
%ADD28RoundRect,0.250000X0.250000X0.475000X-0.250000X0.475000X-0.250000X-0.475000X0.250000X-0.475000X0*%
%ADD29RoundRect,0.100000X0.637500X0.100000X-0.637500X0.100000X-0.637500X-0.100000X0.637500X-0.100000X0*%
%ADD30RoundRect,0.100000X-0.225000X-0.100000X0.225000X-0.100000X0.225000X0.100000X-0.225000X0.100000X0*%
%ADD31C,1.500000*%
%ADD32R,1.500000X2.000000*%
%ADD33R,1.600000X1.600000*%
%ADD34C,1.600000*%
%ADD35O,1.800000X1.800000*%
%ADD36O,1.500000X1.500000*%
%ADD37R,3.500000X1.700000*%
%ADD38R,1.700000X3.500000*%
%ADD39RoundRect,0.250000X0.325000X0.650000X-0.325000X0.650000X-0.325000X-0.650000X0.325000X-0.650000X0*%
%ADD40C,3.500000*%
%ADD41FreePoly0,270.000000*%
%ADD42RoundRect,0.050000X-0.050000X0.412500X-0.050000X-0.412500X0.050000X-0.412500X0.050000X0.412500X0*%
%ADD43FreePoly1,270.000000*%
%ADD44FreePoly2,270.000000*%
%ADD45RoundRect,0.050000X-0.412500X0.050000X-0.412500X-0.050000X0.412500X-0.050000X0.412500X0.050000X0*%
%ADD46FreePoly3,270.000000*%
%ADD47FreePoly4,270.000000*%
%ADD48FreePoly5,270.000000*%
%ADD49FreePoly6,270.000000*%
%ADD50FreePoly7,270.000000*%
G04 APERTURE END LIST*
D10*
%TO.C,R4*%
X143160000Y-107925000D03*
X143160000Y-106275000D03*
%TD*%
D11*
%TO.C,U2*%
X167970000Y-95690000D03*
X167020000Y-95690000D03*
X166070000Y-95690000D03*
X166070000Y-97965000D03*
X167970000Y-97965000D03*
%TD*%
D12*
%TO.C,R21*%
X181645000Y-57970000D03*
X183295000Y-57970000D03*
%TD*%
D13*
%TO.C,R8*%
X141875000Y-112020000D03*
X140225000Y-112020000D03*
%TD*%
D14*
%TO.C,J19*%
X197630000Y-53350000D03*
D15*
X195090000Y-53350000D03*
X192550000Y-53350000D03*
X190010000Y-53350000D03*
X187470000Y-53350000D03*
X184930000Y-53350000D03*
X182390000Y-53350000D03*
X179850000Y-53350000D03*
X177310000Y-53350000D03*
%TD*%
D10*
%TO.C,R2*%
X148407500Y-109610000D03*
X148407500Y-107960000D03*
%TD*%
D16*
%TO.C,C7*%
X165460000Y-105610000D03*
X165460000Y-104060000D03*
%TD*%
D17*
%TO.C,C1*%
X141815000Y-110310000D03*
X140265000Y-110310000D03*
%TD*%
D18*
%TO.C,U5*%
X189910000Y-68280000D03*
X189910000Y-69550000D03*
X189910000Y-70820000D03*
X189910000Y-72090000D03*
X194860000Y-72090000D03*
X194860000Y-70820000D03*
X194860000Y-69550000D03*
X194860000Y-68280000D03*
%TD*%
D19*
%TO.C,C21*%
X198670000Y-70780000D03*
X198670000Y-72330000D03*
%TD*%
D20*
%TO.C,C10*%
X169250000Y-77185000D03*
X170800000Y-77185000D03*
%TD*%
D10*
%TO.C,R3*%
X141370000Y-107905000D03*
X141370000Y-106255000D03*
%TD*%
D21*
%TO.C,SW1*%
X173570000Y-108280000D03*
X180070000Y-108280000D03*
X173570000Y-112780000D03*
X180070000Y-112780000D03*
%TD*%
D22*
%TO.C,RV2*%
X121630000Y-101940000D03*
D23*
X121630000Y-104440000D03*
X121630000Y-106940000D03*
D24*
X128630000Y-100040000D03*
X128630000Y-108840000D03*
%TD*%
D25*
%TO.C,R14*%
X167580000Y-103970000D03*
X167580000Y-105620000D03*
%TD*%
D12*
%TO.C,R22*%
X196475000Y-74670000D03*
X198125000Y-74670000D03*
%TD*%
D17*
%TO.C,C16*%
X194445000Y-74330000D03*
X192895000Y-74330000D03*
%TD*%
D26*
%TO.C,RV3*%
X182020000Y-70590000D03*
D27*
X187220000Y-69440000D03*
D26*
X182020000Y-68290000D03*
%TD*%
D28*
%TO.C,C8*%
X171540000Y-104230000D03*
X169640000Y-104230000D03*
%TD*%
D25*
%TO.C,R17*%
X173670000Y-103915000D03*
X173670000Y-105565000D03*
%TD*%
D10*
%TO.C,R10*%
X152257500Y-109590000D03*
X152257500Y-107940000D03*
%TD*%
D12*
%TO.C,R11*%
X167325000Y-111920000D03*
X168975000Y-111920000D03*
%TD*%
D19*
%TO.C,C6*%
X134330000Y-53995000D03*
X134330000Y-55545000D03*
%TD*%
D17*
%TO.C,C5*%
X164015000Y-108200000D03*
X162465000Y-108200000D03*
%TD*%
D20*
%TO.C,C19*%
X181705000Y-56330000D03*
X183255000Y-56330000D03*
%TD*%
%TO.C,C17*%
X167015000Y-80400000D03*
X168565000Y-80400000D03*
%TD*%
D29*
%TO.C,U4*%
X171410000Y-75360000D03*
X171410000Y-74710000D03*
X171410000Y-74060000D03*
X171410000Y-73410000D03*
X171410000Y-72760000D03*
X171410000Y-72110000D03*
X171410000Y-71460000D03*
X171410000Y-70810000D03*
X171410000Y-70160000D03*
X171410000Y-69510000D03*
X165685000Y-69510000D03*
X165685000Y-70160000D03*
X165685000Y-70810000D03*
X165685000Y-71460000D03*
X165685000Y-72110000D03*
X165685000Y-72760000D03*
X165685000Y-73410000D03*
X165685000Y-74060000D03*
X165685000Y-74710000D03*
X165685000Y-75360000D03*
%TD*%
D10*
%TO.C,R6*%
X139610000Y-107925000D03*
X139610000Y-106275000D03*
%TD*%
D12*
%TO.C,R20*%
X181625000Y-62990000D03*
X183275000Y-62990000D03*
%TD*%
D13*
%TO.C,R1*%
X111945000Y-96440000D03*
X110295000Y-96440000D03*
%TD*%
D30*
%TO.C,U3*%
X157550000Y-103380000D03*
X157550000Y-104030000D03*
X157550000Y-104680000D03*
X159450000Y-104680000D03*
X159450000Y-103380000D03*
%TD*%
D31*
%TO.C,J16*%
X195000000Y-60580000D03*
X188000000Y-60580000D03*
D32*
X195400000Y-57080000D03*
X195400000Y-64080000D03*
X192000000Y-57080000D03*
X188200000Y-64080000D03*
X186500000Y-57080000D03*
X186000000Y-64080000D03*
%TD*%
D20*
%TO.C,C2*%
X149482500Y-111205000D03*
X151032500Y-111205000D03*
%TD*%
D21*
%TO.C,SW2*%
X190410000Y-108280000D03*
X196910000Y-108280000D03*
X190410000Y-112780000D03*
X196910000Y-112780000D03*
%TD*%
D14*
%TO.C,J17*%
X172930000Y-53960000D03*
D15*
X170390000Y-53960000D03*
X167850000Y-53960000D03*
%TD*%
D22*
%TO.C,RV1*%
X104010000Y-101940000D03*
D23*
X104010000Y-104440000D03*
X104010000Y-106940000D03*
D24*
X111010000Y-100040000D03*
X111010000Y-108840000D03*
%TD*%
D12*
%TO.C,R18*%
X181635000Y-59630000D03*
X183285000Y-59630000D03*
%TD*%
D20*
%TO.C,C3*%
X166205000Y-92560000D03*
X167755000Y-92560000D03*
%TD*%
D14*
%TO.C,J15*%
X172915000Y-59435000D03*
D15*
X170375000Y-59435000D03*
X167835000Y-59435000D03*
%TD*%
D16*
%TO.C,C22*%
X197060000Y-72325000D03*
X197060000Y-70775000D03*
%TD*%
D20*
%TO.C,C4*%
X166145000Y-100070000D03*
X167695000Y-100070000D03*
%TD*%
D33*
%TO.C,LS1*%
X176680000Y-89100000D03*
D34*
X191680000Y-89100000D03*
%TD*%
D35*
%TO.C,A1*%
X147275000Y-52000000D03*
D36*
X147575000Y-55030000D03*
X152425000Y-55030000D03*
D35*
X152725000Y-52000000D03*
D15*
X141110000Y-51870000D03*
D37*
X140210000Y-51870000D03*
D15*
X141110000Y-54410000D03*
D37*
X140210000Y-54410000D03*
D14*
X141110000Y-56950000D03*
D37*
X140210000Y-56950000D03*
D15*
X141110000Y-59490000D03*
D37*
X140210000Y-59490000D03*
D15*
X141110000Y-62030000D03*
D37*
X140210000Y-62030000D03*
D15*
X141110000Y-64570000D03*
D37*
X140210000Y-64570000D03*
D15*
X141110000Y-67110000D03*
D37*
X140210000Y-67110000D03*
D14*
X141110000Y-69650000D03*
D37*
X140210000Y-69650000D03*
D15*
X141110000Y-72190000D03*
D37*
X140210000Y-72190000D03*
D15*
X141110000Y-74730000D03*
D37*
X140210000Y-74730000D03*
D15*
X141110000Y-77270000D03*
D37*
X140210000Y-77270000D03*
D15*
X141110000Y-79810000D03*
D37*
X140210000Y-79810000D03*
D14*
X141110000Y-82350000D03*
D37*
X140210000Y-82350000D03*
D15*
X141110000Y-84890000D03*
D37*
X140210000Y-84890000D03*
D15*
X141110000Y-87430000D03*
D37*
X140210000Y-87430000D03*
D15*
X141110000Y-89970000D03*
D37*
X140210000Y-89970000D03*
D15*
X141110000Y-92510000D03*
D37*
X140210000Y-92510000D03*
D14*
X141110000Y-95050000D03*
D37*
X140210000Y-95050000D03*
D15*
X141110000Y-97590000D03*
D37*
X140210000Y-97590000D03*
D15*
X141110000Y-100130000D03*
D37*
X140210000Y-100130000D03*
D15*
X158890000Y-100130000D03*
D37*
X159790000Y-100130000D03*
D15*
X158890000Y-97590000D03*
D37*
X159790000Y-97590000D03*
D14*
X158890000Y-95050000D03*
D37*
X159790000Y-95050000D03*
D15*
X158890000Y-92510000D03*
D37*
X159790000Y-92510000D03*
D15*
X158890000Y-89970000D03*
D37*
X159790000Y-89970000D03*
D15*
X158890000Y-87430000D03*
D37*
X159790000Y-87430000D03*
D15*
X158890000Y-84890000D03*
D37*
X159790000Y-84890000D03*
D14*
X158890000Y-82350000D03*
D37*
X159790000Y-82350000D03*
D15*
X158890000Y-79810000D03*
D37*
X159790000Y-79810000D03*
D15*
X158890000Y-77270000D03*
D37*
X159790000Y-77270000D03*
D15*
X158890000Y-74730000D03*
D37*
X159790000Y-74730000D03*
D15*
X158890000Y-72190000D03*
D37*
X159790000Y-72190000D03*
D14*
X158890000Y-69650000D03*
D37*
X159790000Y-69650000D03*
D15*
X158890000Y-67110000D03*
D37*
X159790000Y-67110000D03*
D15*
X158890000Y-64570000D03*
D37*
X159790000Y-64570000D03*
D15*
X158890000Y-62030000D03*
D37*
X159790000Y-62030000D03*
D15*
X158890000Y-59490000D03*
D37*
X159790000Y-59490000D03*
D14*
X158890000Y-56950000D03*
D37*
X159790000Y-56950000D03*
D15*
X158890000Y-54410000D03*
D37*
X159790000Y-54410000D03*
D15*
X158890000Y-51870000D03*
D37*
X159790000Y-51870000D03*
D15*
X147460000Y-99900000D03*
D38*
X147460000Y-100800000D03*
D14*
X150000000Y-99900000D03*
D38*
X150000000Y-100800000D03*
D15*
X152540000Y-99900000D03*
D38*
X152540000Y-100800000D03*
%TD*%
D13*
%TO.C,R15*%
X168595000Y-83780000D03*
X166945000Y-83780000D03*
%TD*%
D39*
%TO.C,C18*%
X198835000Y-76760000D03*
X195885000Y-76760000D03*
%TD*%
D14*
%TO.C,J13*%
X157100000Y-111010000D03*
D15*
X159640000Y-111010000D03*
X162180000Y-111010000D03*
X164720000Y-111010000D03*
%TD*%
D19*
%TO.C,C15*%
X173635000Y-73410000D03*
X173635000Y-74960000D03*
%TD*%
D40*
%TO.C,J14*%
X105300000Y-56370000D03*
X105300000Y-90590000D03*
D14*
X109070000Y-55370000D03*
D40*
X128080000Y-56370000D03*
X128080000Y-90590000D03*
D15*
X111610000Y-55370000D03*
X114150000Y-55370000D03*
X116690000Y-55370000D03*
X119230000Y-55370000D03*
X121770000Y-55370000D03*
X124310000Y-55370000D03*
%TD*%
D41*
%TO.C,U1*%
X146257500Y-110237500D03*
D42*
X145857500Y-110237500D03*
X145457500Y-110237500D03*
X145057500Y-110237500D03*
D43*
X144657500Y-110237500D03*
D44*
X144070000Y-110825000D03*
D45*
X144070000Y-111225000D03*
X144070000Y-111625000D03*
X144070000Y-112025000D03*
D46*
X144070000Y-112425000D03*
D47*
X144657500Y-113012500D03*
D42*
X145057500Y-113012500D03*
X145457500Y-113012500D03*
X145857500Y-113012500D03*
D48*
X146257500Y-113012500D03*
D49*
X146845000Y-112425000D03*
D45*
X146845000Y-112025000D03*
X146845000Y-111625000D03*
X146845000Y-111225000D03*
D50*
X146845000Y-110825000D03*
%TD*%
D19*
%TO.C,C13*%
X173630000Y-68745000D03*
X173630000Y-70295000D03*
%TD*%
D10*
%TO.C,R7*%
X150307500Y-109595000D03*
X150307500Y-107945000D03*
%TD*%
D20*
%TO.C,C20*%
X181650000Y-64660000D03*
X183200000Y-64660000D03*
%TD*%
D12*
%TO.C,R19*%
X181630000Y-61330000D03*
X183280000Y-61330000D03*
%TD*%
D14*
%TO.C,J18*%
X172870000Y-65200000D03*
D15*
X170330000Y-65200000D03*
X167790000Y-65200000D03*
%TD*%
D12*
%TO.C,R16*%
X166955000Y-82090000D03*
X168605000Y-82090000D03*
%TD*%
D19*
%TO.C,C12*%
X175920000Y-68715000D03*
X175920000Y-70265000D03*
%TD*%
D12*
%TO.C,R12*%
X167305000Y-108780000D03*
X168955000Y-108780000D03*
%TD*%
D13*
%TO.C,R13*%
X163025000Y-105300000D03*
X161375000Y-105300000D03*
%TD*%
D10*
%TO.C,R5*%
X144960000Y-107920000D03*
X144960000Y-106270000D03*
%TD*%
D16*
%TO.C,C14*%
X175455000Y-74980000D03*
X175455000Y-73430000D03*
%TD*%
D17*
%TO.C,C11*%
X162995000Y-103370000D03*
X161445000Y-103370000D03*
%TD*%
D13*
%TO.C,R9*%
X129175000Y-96190000D03*
X127525000Y-96190000D03*
%TD*%
D17*
%TO.C,C9*%
X167120000Y-77205000D03*
X165570000Y-77205000D03*
%TD*%
M02*
