%TF.GenerationSoftware,KiCad,Pcbnew,8.0.4*%
%TF.CreationDate,2024-09-11T16:00:37+01:00*%
%TF.ProjectId,RLab Keyboard,524c6162-204b-4657-9962-6f6172642e6b,rev?*%
%TF.SameCoordinates,Original*%
%TF.FileFunction,Other,Comment*%
%FSLAX46Y46*%
G04 Gerber Fmt 4.6, Leading zero omitted, Abs format (unit mm)*
G04 Created by KiCad (PCBNEW 8.0.4) date 2024-09-11 16:00:37*
%MOMM*%
%LPD*%
G01*
G04 APERTURE LIST*
%ADD10C,0.150000*%
G04 APERTURE END LIST*
D10*
X136099997Y-46159580D02*
X136052378Y-46207200D01*
X136052378Y-46207200D02*
X135909521Y-46254819D01*
X135909521Y-46254819D02*
X135814283Y-46254819D01*
X135814283Y-46254819D02*
X135671426Y-46207200D01*
X135671426Y-46207200D02*
X135576188Y-46111961D01*
X135576188Y-46111961D02*
X135528569Y-46016723D01*
X135528569Y-46016723D02*
X135480950Y-45826247D01*
X135480950Y-45826247D02*
X135480950Y-45683390D01*
X135480950Y-45683390D02*
X135528569Y-45492914D01*
X135528569Y-45492914D02*
X135576188Y-45397676D01*
X135576188Y-45397676D02*
X135671426Y-45302438D01*
X135671426Y-45302438D02*
X135814283Y-45254819D01*
X135814283Y-45254819D02*
X135909521Y-45254819D01*
X135909521Y-45254819D02*
X136052378Y-45302438D01*
X136052378Y-45302438D02*
X136099997Y-45350057D01*
X136671426Y-46254819D02*
X136576188Y-46207200D01*
X136576188Y-46207200D02*
X136528569Y-46159580D01*
X136528569Y-46159580D02*
X136480950Y-46064342D01*
X136480950Y-46064342D02*
X136480950Y-45778628D01*
X136480950Y-45778628D02*
X136528569Y-45683390D01*
X136528569Y-45683390D02*
X136576188Y-45635771D01*
X136576188Y-45635771D02*
X136671426Y-45588152D01*
X136671426Y-45588152D02*
X136814283Y-45588152D01*
X136814283Y-45588152D02*
X136909521Y-45635771D01*
X136909521Y-45635771D02*
X136957140Y-45683390D01*
X136957140Y-45683390D02*
X137004759Y-45778628D01*
X137004759Y-45778628D02*
X137004759Y-46064342D01*
X137004759Y-46064342D02*
X136957140Y-46159580D01*
X136957140Y-46159580D02*
X136909521Y-46207200D01*
X136909521Y-46207200D02*
X136814283Y-46254819D01*
X136814283Y-46254819D02*
X136671426Y-46254819D01*
X137433331Y-45588152D02*
X137433331Y-46588152D01*
X137433331Y-45635771D02*
X137528569Y-45588152D01*
X137528569Y-45588152D02*
X137719045Y-45588152D01*
X137719045Y-45588152D02*
X137814283Y-45635771D01*
X137814283Y-45635771D02*
X137861902Y-45683390D01*
X137861902Y-45683390D02*
X137909521Y-45778628D01*
X137909521Y-45778628D02*
X137909521Y-46064342D01*
X137909521Y-46064342D02*
X137861902Y-46159580D01*
X137861902Y-46159580D02*
X137814283Y-46207200D01*
X137814283Y-46207200D02*
X137719045Y-46254819D01*
X137719045Y-46254819D02*
X137528569Y-46254819D01*
X137528569Y-46254819D02*
X137433331Y-46207200D01*
X138338093Y-45588152D02*
X138338093Y-46588152D01*
X138338093Y-45635771D02*
X138433331Y-45588152D01*
X138433331Y-45588152D02*
X138623807Y-45588152D01*
X138623807Y-45588152D02*
X138719045Y-45635771D01*
X138719045Y-45635771D02*
X138766664Y-45683390D01*
X138766664Y-45683390D02*
X138814283Y-45778628D01*
X138814283Y-45778628D02*
X138814283Y-46064342D01*
X138814283Y-46064342D02*
X138766664Y-46159580D01*
X138766664Y-46159580D02*
X138719045Y-46207200D01*
X138719045Y-46207200D02*
X138623807Y-46254819D01*
X138623807Y-46254819D02*
X138433331Y-46254819D01*
X138433331Y-46254819D02*
X138338093Y-46207200D01*
X139623807Y-46207200D02*
X139528569Y-46254819D01*
X139528569Y-46254819D02*
X139338093Y-46254819D01*
X139338093Y-46254819D02*
X139242855Y-46207200D01*
X139242855Y-46207200D02*
X139195236Y-46111961D01*
X139195236Y-46111961D02*
X139195236Y-45731009D01*
X139195236Y-45731009D02*
X139242855Y-45635771D01*
X139242855Y-45635771D02*
X139338093Y-45588152D01*
X139338093Y-45588152D02*
X139528569Y-45588152D01*
X139528569Y-45588152D02*
X139623807Y-45635771D01*
X139623807Y-45635771D02*
X139671426Y-45731009D01*
X139671426Y-45731009D02*
X139671426Y-45826247D01*
X139671426Y-45826247D02*
X139195236Y-45921485D01*
X140099998Y-46254819D02*
X140099998Y-45588152D01*
X140099998Y-45778628D02*
X140147617Y-45683390D01*
X140147617Y-45683390D02*
X140195236Y-45635771D01*
X140195236Y-45635771D02*
X140290474Y-45588152D01*
X140290474Y-45588152D02*
X140385712Y-45588152D01*
X141480951Y-46254819D02*
X141480951Y-45254819D01*
X142052379Y-46254819D02*
X141623808Y-45683390D01*
X142052379Y-45254819D02*
X141480951Y-45826247D01*
X142861903Y-46207200D02*
X142766665Y-46254819D01*
X142766665Y-46254819D02*
X142576189Y-46254819D01*
X142576189Y-46254819D02*
X142480951Y-46207200D01*
X142480951Y-46207200D02*
X142433332Y-46111961D01*
X142433332Y-46111961D02*
X142433332Y-45731009D01*
X142433332Y-45731009D02*
X142480951Y-45635771D01*
X142480951Y-45635771D02*
X142576189Y-45588152D01*
X142576189Y-45588152D02*
X142766665Y-45588152D01*
X142766665Y-45588152D02*
X142861903Y-45635771D01*
X142861903Y-45635771D02*
X142909522Y-45731009D01*
X142909522Y-45731009D02*
X142909522Y-45826247D01*
X142909522Y-45826247D02*
X142433332Y-45921485D01*
X143719046Y-46207200D02*
X143623808Y-46254819D01*
X143623808Y-46254819D02*
X143433332Y-46254819D01*
X143433332Y-46254819D02*
X143338094Y-46207200D01*
X143338094Y-46207200D02*
X143290475Y-46111961D01*
X143290475Y-46111961D02*
X143290475Y-45731009D01*
X143290475Y-45731009D02*
X143338094Y-45635771D01*
X143338094Y-45635771D02*
X143433332Y-45588152D01*
X143433332Y-45588152D02*
X143623808Y-45588152D01*
X143623808Y-45588152D02*
X143719046Y-45635771D01*
X143719046Y-45635771D02*
X143766665Y-45731009D01*
X143766665Y-45731009D02*
X143766665Y-45826247D01*
X143766665Y-45826247D02*
X143290475Y-45921485D01*
X144195237Y-45588152D02*
X144195237Y-46588152D01*
X144195237Y-45635771D02*
X144290475Y-45588152D01*
X144290475Y-45588152D02*
X144480951Y-45588152D01*
X144480951Y-45588152D02*
X144576189Y-45635771D01*
X144576189Y-45635771D02*
X144623808Y-45683390D01*
X144623808Y-45683390D02*
X144671427Y-45778628D01*
X144671427Y-45778628D02*
X144671427Y-46064342D01*
X144671427Y-46064342D02*
X144623808Y-46159580D01*
X144623808Y-46159580D02*
X144576189Y-46207200D01*
X144576189Y-46207200D02*
X144480951Y-46254819D01*
X144480951Y-46254819D02*
X144290475Y-46254819D01*
X144290475Y-46254819D02*
X144195237Y-46207200D01*
X145242856Y-46254819D02*
X145147618Y-46207200D01*
X145147618Y-46207200D02*
X145099999Y-46159580D01*
X145099999Y-46159580D02*
X145052380Y-46064342D01*
X145052380Y-46064342D02*
X145052380Y-45778628D01*
X145052380Y-45778628D02*
X145099999Y-45683390D01*
X145099999Y-45683390D02*
X145147618Y-45635771D01*
X145147618Y-45635771D02*
X145242856Y-45588152D01*
X145242856Y-45588152D02*
X145385713Y-45588152D01*
X145385713Y-45588152D02*
X145480951Y-45635771D01*
X145480951Y-45635771D02*
X145528570Y-45683390D01*
X145528570Y-45683390D02*
X145576189Y-45778628D01*
X145576189Y-45778628D02*
X145576189Y-46064342D01*
X145576189Y-46064342D02*
X145528570Y-46159580D01*
X145528570Y-46159580D02*
X145480951Y-46207200D01*
X145480951Y-46207200D02*
X145385713Y-46254819D01*
X145385713Y-46254819D02*
X145242856Y-46254819D01*
X146433332Y-45588152D02*
X146433332Y-46254819D01*
X146004761Y-45588152D02*
X146004761Y-46111961D01*
X146004761Y-46111961D02*
X146052380Y-46207200D01*
X146052380Y-46207200D02*
X146147618Y-46254819D01*
X146147618Y-46254819D02*
X146290475Y-46254819D01*
X146290475Y-46254819D02*
X146385713Y-46207200D01*
X146385713Y-46207200D02*
X146433332Y-46159580D01*
X146766666Y-45588152D02*
X147147618Y-45588152D01*
X146909523Y-45254819D02*
X146909523Y-46111961D01*
X146909523Y-46111961D02*
X146957142Y-46207200D01*
X146957142Y-46207200D02*
X147052380Y-46254819D01*
X147052380Y-46254819D02*
X147147618Y-46254819D01*
X147433333Y-46207200D02*
X147528571Y-46254819D01*
X147528571Y-46254819D02*
X147719047Y-46254819D01*
X147719047Y-46254819D02*
X147814285Y-46207200D01*
X147814285Y-46207200D02*
X147861904Y-46111961D01*
X147861904Y-46111961D02*
X147861904Y-46064342D01*
X147861904Y-46064342D02*
X147814285Y-45969104D01*
X147814285Y-45969104D02*
X147719047Y-45921485D01*
X147719047Y-45921485D02*
X147576190Y-45921485D01*
X147576190Y-45921485D02*
X147480952Y-45873866D01*
X147480952Y-45873866D02*
X147433333Y-45778628D01*
X147433333Y-45778628D02*
X147433333Y-45731009D01*
X147433333Y-45731009D02*
X147480952Y-45635771D01*
X147480952Y-45635771D02*
X147576190Y-45588152D01*
X147576190Y-45588152D02*
X147719047Y-45588152D01*
X147719047Y-45588152D02*
X147814285Y-45635771D01*
X149004762Y-46207200D02*
X149100000Y-46254819D01*
X149100000Y-46254819D02*
X149290476Y-46254819D01*
X149290476Y-46254819D02*
X149385714Y-46207200D01*
X149385714Y-46207200D02*
X149433333Y-46111961D01*
X149433333Y-46111961D02*
X149433333Y-46064342D01*
X149433333Y-46064342D02*
X149385714Y-45969104D01*
X149385714Y-45969104D02*
X149290476Y-45921485D01*
X149290476Y-45921485D02*
X149147619Y-45921485D01*
X149147619Y-45921485D02*
X149052381Y-45873866D01*
X149052381Y-45873866D02*
X149004762Y-45778628D01*
X149004762Y-45778628D02*
X149004762Y-45731009D01*
X149004762Y-45731009D02*
X149052381Y-45635771D01*
X149052381Y-45635771D02*
X149147619Y-45588152D01*
X149147619Y-45588152D02*
X149290476Y-45588152D01*
X149290476Y-45588152D02*
X149385714Y-45635771D01*
X149861905Y-46254819D02*
X149861905Y-45254819D01*
X150290476Y-46254819D02*
X150290476Y-45731009D01*
X150290476Y-45731009D02*
X150242857Y-45635771D01*
X150242857Y-45635771D02*
X150147619Y-45588152D01*
X150147619Y-45588152D02*
X150004762Y-45588152D01*
X150004762Y-45588152D02*
X149909524Y-45635771D01*
X149909524Y-45635771D02*
X149861905Y-45683390D01*
X150909524Y-46254819D02*
X150814286Y-46207200D01*
X150814286Y-46207200D02*
X150766667Y-46159580D01*
X150766667Y-46159580D02*
X150719048Y-46064342D01*
X150719048Y-46064342D02*
X150719048Y-45778628D01*
X150719048Y-45778628D02*
X150766667Y-45683390D01*
X150766667Y-45683390D02*
X150814286Y-45635771D01*
X150814286Y-45635771D02*
X150909524Y-45588152D01*
X150909524Y-45588152D02*
X151052381Y-45588152D01*
X151052381Y-45588152D02*
X151147619Y-45635771D01*
X151147619Y-45635771D02*
X151195238Y-45683390D01*
X151195238Y-45683390D02*
X151242857Y-45778628D01*
X151242857Y-45778628D02*
X151242857Y-46064342D01*
X151242857Y-46064342D02*
X151195238Y-46159580D01*
X151195238Y-46159580D02*
X151147619Y-46207200D01*
X151147619Y-46207200D02*
X151052381Y-46254819D01*
X151052381Y-46254819D02*
X150909524Y-46254819D01*
X151576191Y-45588152D02*
X151766667Y-46254819D01*
X151766667Y-46254819D02*
X151957143Y-45778628D01*
X151957143Y-45778628D02*
X152147619Y-46254819D01*
X152147619Y-46254819D02*
X152338095Y-45588152D01*
X152719048Y-45588152D02*
X152719048Y-46254819D01*
X152719048Y-45683390D02*
X152766667Y-45635771D01*
X152766667Y-45635771D02*
X152861905Y-45588152D01*
X152861905Y-45588152D02*
X153004762Y-45588152D01*
X153004762Y-45588152D02*
X153100000Y-45635771D01*
X153100000Y-45635771D02*
X153147619Y-45731009D01*
X153147619Y-45731009D02*
X153147619Y-46254819D01*
X154528572Y-46254819D02*
X154433334Y-46207200D01*
X154433334Y-46207200D02*
X154385715Y-46159580D01*
X154385715Y-46159580D02*
X154338096Y-46064342D01*
X154338096Y-46064342D02*
X154338096Y-45778628D01*
X154338096Y-45778628D02*
X154385715Y-45683390D01*
X154385715Y-45683390D02*
X154433334Y-45635771D01*
X154433334Y-45635771D02*
X154528572Y-45588152D01*
X154528572Y-45588152D02*
X154671429Y-45588152D01*
X154671429Y-45588152D02*
X154766667Y-45635771D01*
X154766667Y-45635771D02*
X154814286Y-45683390D01*
X154814286Y-45683390D02*
X154861905Y-45778628D01*
X154861905Y-45778628D02*
X154861905Y-46064342D01*
X154861905Y-46064342D02*
X154814286Y-46159580D01*
X154814286Y-46159580D02*
X154766667Y-46207200D01*
X154766667Y-46207200D02*
X154671429Y-46254819D01*
X154671429Y-46254819D02*
X154528572Y-46254819D01*
X155290477Y-45588152D02*
X155290477Y-46254819D01*
X155290477Y-45683390D02*
X155338096Y-45635771D01*
X155338096Y-45635771D02*
X155433334Y-45588152D01*
X155433334Y-45588152D02*
X155576191Y-45588152D01*
X155576191Y-45588152D02*
X155671429Y-45635771D01*
X155671429Y-45635771D02*
X155719048Y-45731009D01*
X155719048Y-45731009D02*
X155719048Y-46254819D01*
X156957144Y-46254819D02*
X156957144Y-45254819D01*
X156957144Y-45254819D02*
X157195239Y-45254819D01*
X157195239Y-45254819D02*
X157338096Y-45302438D01*
X157338096Y-45302438D02*
X157433334Y-45397676D01*
X157433334Y-45397676D02*
X157480953Y-45492914D01*
X157480953Y-45492914D02*
X157528572Y-45683390D01*
X157528572Y-45683390D02*
X157528572Y-45826247D01*
X157528572Y-45826247D02*
X157480953Y-46016723D01*
X157480953Y-46016723D02*
X157433334Y-46111961D01*
X157433334Y-46111961D02*
X157338096Y-46207200D01*
X157338096Y-46207200D02*
X157195239Y-46254819D01*
X157195239Y-46254819D02*
X156957144Y-46254819D01*
X157861906Y-45588152D02*
X158052382Y-46254819D01*
X158052382Y-46254819D02*
X158242858Y-45778628D01*
X158242858Y-45778628D02*
X158433334Y-46254819D01*
X158433334Y-46254819D02*
X158623810Y-45588152D01*
X159433334Y-45588152D02*
X159433334Y-46397676D01*
X159433334Y-46397676D02*
X159385715Y-46492914D01*
X159385715Y-46492914D02*
X159338096Y-46540533D01*
X159338096Y-46540533D02*
X159242858Y-46588152D01*
X159242858Y-46588152D02*
X159100001Y-46588152D01*
X159100001Y-46588152D02*
X159004763Y-46540533D01*
X159433334Y-46207200D02*
X159338096Y-46254819D01*
X159338096Y-46254819D02*
X159147620Y-46254819D01*
X159147620Y-46254819D02*
X159052382Y-46207200D01*
X159052382Y-46207200D02*
X159004763Y-46159580D01*
X159004763Y-46159580D02*
X158957144Y-46064342D01*
X158957144Y-46064342D02*
X158957144Y-45778628D01*
X158957144Y-45778628D02*
X159004763Y-45683390D01*
X159004763Y-45683390D02*
X159052382Y-45635771D01*
X159052382Y-45635771D02*
X159147620Y-45588152D01*
X159147620Y-45588152D02*
X159338096Y-45588152D01*
X159338096Y-45588152D02*
X159433334Y-45635771D01*
X159861906Y-46207200D02*
X159957144Y-46254819D01*
X159957144Y-46254819D02*
X160147620Y-46254819D01*
X160147620Y-46254819D02*
X160242858Y-46207200D01*
X160242858Y-46207200D02*
X160290477Y-46111961D01*
X160290477Y-46111961D02*
X160290477Y-46064342D01*
X160290477Y-46064342D02*
X160242858Y-45969104D01*
X160242858Y-45969104D02*
X160147620Y-45921485D01*
X160147620Y-45921485D02*
X160004763Y-45921485D01*
X160004763Y-45921485D02*
X159909525Y-45873866D01*
X159909525Y-45873866D02*
X159861906Y-45778628D01*
X159861906Y-45778628D02*
X159861906Y-45731009D01*
X159861906Y-45731009D02*
X159909525Y-45635771D01*
X159909525Y-45635771D02*
X160004763Y-45588152D01*
X160004763Y-45588152D02*
X160147620Y-45588152D01*
X160147620Y-45588152D02*
X160242858Y-45635771D01*
X161623811Y-46254819D02*
X161528573Y-46207200D01*
X161528573Y-46207200D02*
X161480954Y-46111961D01*
X161480954Y-46111961D02*
X161480954Y-45254819D01*
X162433335Y-46254819D02*
X162433335Y-45731009D01*
X162433335Y-45731009D02*
X162385716Y-45635771D01*
X162385716Y-45635771D02*
X162290478Y-45588152D01*
X162290478Y-45588152D02*
X162100002Y-45588152D01*
X162100002Y-45588152D02*
X162004764Y-45635771D01*
X162433335Y-46207200D02*
X162338097Y-46254819D01*
X162338097Y-46254819D02*
X162100002Y-46254819D01*
X162100002Y-46254819D02*
X162004764Y-46207200D01*
X162004764Y-46207200D02*
X161957145Y-46111961D01*
X161957145Y-46111961D02*
X161957145Y-46016723D01*
X161957145Y-46016723D02*
X162004764Y-45921485D01*
X162004764Y-45921485D02*
X162100002Y-45873866D01*
X162100002Y-45873866D02*
X162338097Y-45873866D01*
X162338097Y-45873866D02*
X162433335Y-45826247D01*
X162814288Y-45588152D02*
X163052383Y-46254819D01*
X163290478Y-45588152D02*
X163052383Y-46254819D01*
X163052383Y-46254819D02*
X162957145Y-46492914D01*
X162957145Y-46492914D02*
X162909526Y-46540533D01*
X162909526Y-46540533D02*
X162814288Y-46588152D01*
X164052383Y-46207200D02*
X163957145Y-46254819D01*
X163957145Y-46254819D02*
X163766669Y-46254819D01*
X163766669Y-46254819D02*
X163671431Y-46207200D01*
X163671431Y-46207200D02*
X163623812Y-46111961D01*
X163623812Y-46111961D02*
X163623812Y-45731009D01*
X163623812Y-45731009D02*
X163671431Y-45635771D01*
X163671431Y-45635771D02*
X163766669Y-45588152D01*
X163766669Y-45588152D02*
X163957145Y-45588152D01*
X163957145Y-45588152D02*
X164052383Y-45635771D01*
X164052383Y-45635771D02*
X164100002Y-45731009D01*
X164100002Y-45731009D02*
X164100002Y-45826247D01*
X164100002Y-45826247D02*
X163623812Y-45921485D01*
X164528574Y-46254819D02*
X164528574Y-45588152D01*
X164528574Y-45778628D02*
X164576193Y-45683390D01*
X164576193Y-45683390D02*
X164623812Y-45635771D01*
X164623812Y-45635771D02*
X164719050Y-45588152D01*
X164719050Y-45588152D02*
X164814288Y-45588152D01*
M02*
